<?xml version="1.0" encoding="utf-8"?>
<!-- Generator: Adobe Illustrator 21.0.0, SVG Export Plug-In . SVG Version: 6.00 Build 0)  -->
<svg version="1.1" id="Layer_1" xmlns="http://www.w3.org/2000/svg" xmlns:xlink="http://www.w3.org/1999/xlink" x="0px" y="0px"
	 viewBox="0 0 800 800" style="enable-background:new 0 0 800 800;" xml:space="preserve">
<style type="text/css">
	.st0{fill:#FFFFFF;}
</style>
<g>
	<g>
		<polygon class="st0" points="108.5,409.9 -58.1,576.4 2.9,804 230.4,864.9 397,698.4 336,470.8 		"/>
	</g>
	<g>
		<polygon class="st0" points="190.6,124.1 78,236.8 119.2,390.7 273.1,431.9 385.8,319.2 344.6,165.3 		"/>
	</g>
	<g>
		<polygon class="st0" points="-49.6,249.8 -134.1,334.3 -103.2,449.7 12.3,480.6 96.8,396.1 65.8,280.7 		"/>
	</g>
	<g>
		<polygon class="st0" points="411,411.4 354.6,467.8 375.2,544.9 452.3,565.5 508.7,509.1 488,432.1 		"/>
	</g>
	<g>
		<polygon class="st0" points="-6.7,127.6 -52.4,173.4 -35.6,235.8 26.8,252.6 72.5,206.8 55.8,144.4 		"/>
	</g>
	<g>
		<polygon class="st0" points="544,416.2 508.5,451.8 521.5,500.3 570,513.3 605.5,477.8 592.5,429.2 		"/>
	</g>
	<g>
		<polygon class="st0" points="544,622.2 508.5,657.8 521.5,706.3 570,719.3 605.5,683.8 592.5,635.2 		"/>
	</g>
	<g>
		<polygon class="st0" points="431.2,696.1 328.2,799 365.9,939.7 506.5,977.3 609.5,874.4 571.8,733.8 		"/>
	</g>
	<g>
		<polygon class="st0" points="467.1,323 431.6,358.6 444.6,407.1 493.1,420.1 528.7,384.6 515.7,336 		"/>
	</g>
	<g>
		<polygon class="st0" points="35,50.7 4.3,81.3 15.5,123.1 57.4,134.3 88,103.7 76.8,61.9 		"/>
	</g>
	<g>
		<polygon class="st0" points="220.2,40.8 189.6,71.4 200.8,113.2 242.6,124.4 273.3,93.8 262.1,52 		"/>
	</g>
</g>
</svg>
